<svg preserveAspectRatio="none" width="100%" height="100%" overflow="visible" style="display: block;" viewBox="0 0 83 75" fill="none" xmlns="http://www.w3.org/2000/svg">
<g id="Group">
<path id="Vector" d="M56 3.01302H0V59.013H56V3.01302Z" fill="var(--fill-0, #FEB052)"/>
<path id="Vector_2" d="M63.2678 1.36494L18.8018 6.82468C12.6623 7.57852 8.29636 13.1667 9.05019 19.3061L14.5099 63.7722C15.2638 69.9117 20.8519 74.2776 26.9914 73.5238L71.4575 68.064C77.597 67.3102 81.9629 61.7221 81.2091 55.5826L75.7493 11.1165C74.9955 4.97703 69.4073 0.611103 63.2678 1.36494Z" fill="var(--fill-0, #4894FE)"/>
<g id="Group_2">
<path id="Vector_3" d="M29.0284 34.362C32.2167 35.7526 35.3235 35.5897 38.3489 33.8735" stroke="var(--stroke-0, white)" stroke-width="2.22222" stroke-linecap="round"/>
<path id="Vector_4" d="M24.6564 25.245C24.6114 24.387 24.0533 23.7189 23.4099 23.7526C22.7664 23.7863 22.2813 24.5091 22.3262 25.3671C22.3712 26.225 22.9293 26.8932 23.5727 26.8594C24.2162 26.8257 24.7013 26.1029 24.6564 25.245Z" fill="var(--fill-0, white)"/>
<path id="Vector_5" d="M43.2975 24.268C43.2525 23.4101 42.6944 22.7419 42.051 22.7756C41.4075 22.8094 40.9224 23.5322 40.9673 24.3901C41.0123 25.2481 41.5704 25.9162 42.2138 25.8825C42.8573 25.8488 43.3424 25.1259 43.2975 24.268Z" fill="var(--fill-0, white)"/>
</g>
</g>
</svg>
